<svg width="175" height="65" viewBox="0 0 175 65" fill="none" xmlns="http://www.w3.org/2000/svg">
<path d="M140.665 2.72233L142.752 6.40761C142.906 6.67461 143.2 6.86002 143.538 6.90123L148.227 7.50116C148.5 7.53494 148.749 7.66185 148.917 7.85551C149.083 8.0467 149.154 8.28898 149.114 8.52713C149.081 8.72491 148.975 8.90786 148.813 9.04795L145.415 11.9413C145.167 12.1432 145.054 12.4423 145.114 12.7349L145.951 16.8025C146.04 17.2937 145.67 17.7568 145.114 17.8499C144.886 17.8821 144.651 17.8483 144.445 17.756L140.263 15.8417C139.952 15.704 139.586 15.704 139.275 15.8417L135.093 17.756C134.579 17.9958 133.943 17.8326 133.657 17.3876C133.551 17.2104 133.513 17.0085 133.548 16.8116L134.384 12.7431C134.444 12.4514 134.331 12.1506 134.083 11.9487L130.686 9.05702C130.282 8.7142 130.27 8.14971 130.659 7.79453C130.667 7.78711 130.677 7.77887 130.686 7.77063C130.847 7.62642 131.059 7.53494 131.288 7.51105L135.977 6.91029C136.314 6.86826 136.608 6.6845 136.762 6.41585L138.775 2.72233C138.954 2.40588 139.325 2.20893 139.728 2.21717H139.854C140.204 2.25425 140.508 2.44461 140.665 2.72233Z" fill="#FAC412"/>
<path d="M139.742 15.739C139.561 15.744 139.384 15.7868 139.225 15.8635L135.063 17.7735C134.554 17.987 133.944 17.8213 133.659 17.3935C133.553 17.2187 133.515 17.0184 133.55 16.8222L134.382 12.7624C134.438 12.4672 134.325 12.1672 134.081 11.9595L130.682 9.06851C130.279 8.72146 130.271 8.15185 130.666 7.79656C130.672 7.79161 130.677 7.78749 130.682 7.78337C130.843 7.64323 131.051 7.55091 131.275 7.52206L135.967 6.91535C136.307 6.87743 136.602 6.69113 136.752 6.42074L138.791 2.68074C138.985 2.37903 139.357 2.19932 139.75 2.21828C139.742 2.46311 139.742 15.5725 139.742 15.739Z" fill="#FAC412"/>
<path d="M116.813 2.72233L118.669 6.40761C118.805 6.67461 119.066 6.86002 119.367 6.90123L123.535 7.50116C123.778 7.53494 123.999 7.66185 124.148 7.85551C124.296 8.0467 124.359 8.28898 124.323 8.52713C124.294 8.72491 124.2 8.90786 124.056 9.04795L121.036 11.9413C120.815 12.1432 120.715 12.4423 120.768 12.7349L121.512 16.8025C121.591 17.2937 121.262 17.7568 120.768 17.8499C120.565 17.8821 120.357 17.8483 120.173 17.756L116.456 15.8417C116.18 15.704 115.854 15.704 115.578 15.8417L111.861 17.756C111.404 17.9958 110.838 17.8326 110.584 17.3876C110.49 17.2104 110.456 17.0085 110.487 16.8116L111.231 12.7431C111.284 12.4514 111.183 12.1506 110.963 11.9487L107.943 9.05702C107.584 8.7142 107.573 8.14971 107.919 7.79453C107.926 7.78711 107.935 7.77887 107.943 7.77063C108.087 7.62642 108.275 7.53494 108.478 7.51105L112.646 6.91029C112.946 6.86826 113.207 6.6845 113.344 6.41585L115.133 2.72233C115.292 2.40588 115.622 2.20893 115.981 2.21717H116.092C116.403 2.25425 116.674 2.44461 116.813 2.72233Z" fill="#FAC412"/>
<path d="M115.993 15.739C115.832 15.744 115.674 15.7868 115.533 15.8635L111.834 17.7735C111.381 17.987 110.839 17.8213 110.586 17.3935C110.492 17.2187 110.458 17.0184 110.489 16.8222L111.228 12.7624C111.278 12.4672 111.178 12.1672 110.961 11.9595L107.94 9.06851C107.581 8.72146 107.574 8.15185 107.926 7.79656C107.931 7.79161 107.935 7.78749 107.94 7.78337C108.083 7.64323 108.268 7.55091 108.466 7.52206L112.637 6.91535C112.94 6.87743 113.202 6.69113 113.335 6.42074L115.148 2.68074C115.32 2.37903 115.65 2.19932 116 2.21828C115.993 2.46311 115.993 15.5725 115.993 15.739Z" fill="#FAC412"/>
<path d="M91.8134 2.72233L93.6688 6.40761C93.8055 6.67461 94.0664 6.86002 94.3673 6.90123L98.5348 7.50116C98.7782 7.53494 98.9991 7.66185 99.1483 7.85551C99.2958 8.0467 99.3592 8.28898 99.3233 8.52713C99.2942 8.72491 99.2 8.90786 99.0558 9.04795L96.036 11.9413C95.8151 12.1432 95.7151 12.4423 95.7684 12.7349L96.5119 16.8025C96.5911 17.2937 96.2618 17.7568 95.7684 17.8499C95.565 17.8821 95.3567 17.8483 95.1733 17.756L91.4558 15.8417C91.1799 15.704 90.854 15.704 90.5781 15.8417L86.8607 17.756C86.4039 17.9958 85.8379 17.8326 85.5837 17.3876C85.4895 17.2104 85.4562 17.0085 85.487 16.8116L86.2305 12.7431C86.2839 12.4514 86.183 12.1506 85.963 11.9487L82.9432 9.05702C82.5839 8.7142 82.5731 8.14971 82.919 7.79453C82.9265 7.78711 82.9348 7.77887 82.9432 7.77063C83.0865 7.62642 83.2749 7.53494 83.4783 7.51105L87.6458 6.91029C87.9459 6.86826 88.2068 6.6845 88.3443 6.41585L90.133 2.72233C90.2922 2.40588 90.6223 2.20893 90.9807 2.21717H91.0924C91.4033 2.25425 91.6742 2.44461 91.8134 2.72233Z" fill="#FAC412"/>
<path d="M90.9931 15.739C90.8317 15.744 90.6745 15.7868 90.533 15.8635L86.8337 17.7735C86.3811 17.987 85.8394 17.8213 85.5857 17.3935C85.4916 17.2187 85.4575 17.0184 85.4892 16.8222L86.228 12.7624C86.2779 12.4672 86.1781 12.1672 85.9609 11.9595L82.9398 9.06851C82.5811 8.72146 82.5745 8.15185 82.9256 7.79656C82.9306 7.79161 82.9348 7.78749 82.9398 7.78337C83.0829 7.64323 83.2676 7.55091 83.4664 7.52206L87.6375 6.91535C87.9395 6.87743 88.2016 6.69113 88.3348 6.42074L90.1478 2.68074C90.32 2.37903 90.6503 2.19932 90.9998 2.21828C90.9931 2.46311 90.9931 15.5725 90.9931 15.739Z" fill="#FAC412"/>
<path d="M66.8134 2.72233L68.6688 6.40761C68.8055 6.67461 69.0664 6.86002 69.3673 6.90123L73.5348 7.50116C73.7782 7.53494 73.9991 7.66185 74.1483 7.85551C74.2958 8.0467 74.3592 8.28898 74.3233 8.52713C74.2942 8.72491 74.2 8.90786 74.0558 9.04795L71.036 11.9413C70.8151 12.1432 70.7151 12.4423 70.7684 12.7349L71.5119 16.8025C71.5911 17.2937 71.2618 17.7568 70.7684 17.8499C70.565 17.8821 70.3567 17.8483 70.1733 17.756L66.4558 15.8417C66.1799 15.704 65.854 15.704 65.5781 15.8417L61.8607 17.756C61.4039 17.9958 60.8379 17.8326 60.5837 17.3876C60.4895 17.2104 60.4562 17.0085 60.487 16.8116L61.2305 12.7431C61.2839 12.4514 61.183 12.1506 60.963 11.9487L57.9432 9.05702C57.5839 8.7142 57.5731 8.14971 57.919 7.79453C57.9265 7.78711 57.9348 7.77887 57.9432 7.77063C58.0865 7.62642 58.2749 7.53494 58.4783 7.51105L62.6458 6.91029C62.9459 6.86826 63.2068 6.6845 63.3443 6.41585L65.133 2.72233C65.2922 2.40588 65.6223 2.20893 65.9807 2.21717H66.0924C66.4033 2.25425 66.6742 2.44461 66.8134 2.72233Z" fill="#FAC412"/>
<path d="M65.9931 15.739C65.8317 15.744 65.6745 15.7868 65.533 15.8635L61.8337 17.7735C61.3811 17.987 60.8394 17.8213 60.5857 17.3935C60.4916 17.2187 60.4575 17.0184 60.4892 16.8222L61.228 12.7624C61.2779 12.4672 61.1781 12.1672 60.9609 11.9595L57.9398 9.06851C57.5811 8.72146 57.5745 8.15185 57.9256 7.79656C57.9306 7.79161 57.9348 7.78749 57.9398 7.78337C58.0829 7.64323 58.2676 7.55091 58.4664 7.52206L62.6375 6.91535C62.9395 6.87743 63.2016 6.69113 63.3348 6.42074L65.1478 2.68074C65.32 2.37903 65.6503 2.19932 65.9998 2.21828C65.9931 2.46311 65.9931 15.5725 65.9931 15.739Z" fill="#FAC412"/>
<path d="M43.1651 2.72233L45.2524 6.40761C45.4062 6.67461 45.6997 6.86002 46.0382 6.90123L50.7267 7.50116C51.0005 7.53494 51.249 7.66185 51.4169 7.85551C51.5828 8.0467 51.6541 8.28898 51.6138 8.52713C51.581 8.72491 51.475 8.90786 51.3128 9.04795L47.9155 11.9413C47.667 12.1432 47.5545 12.4423 47.6145 12.7349L48.4509 16.8025C48.54 17.2937 48.1696 17.7568 47.6145 17.8499C47.3857 17.8821 47.1513 17.8483 46.945 17.756L42.7628 15.8417C42.4524 15.704 42.0858 15.704 41.7754 15.8417L37.5933 17.756C37.0794 17.9958 36.4427 17.8326 36.1567 17.3876C36.0508 17.2104 36.0133 17.0085 36.0479 16.8116L36.8844 12.7431C36.9444 12.4514 36.8309 12.1506 36.5834 11.9487L33.1861 9.05702C32.7819 8.7142 32.7697 8.14971 33.1589 7.79453C33.1673 7.78711 33.1767 7.77887 33.1861 7.77063C33.3474 7.62642 33.5593 7.53494 33.7881 7.51105L38.4766 6.91029C38.8142 6.86826 39.1077 6.6845 39.2624 6.41585L41.2747 2.72233C41.4538 2.40588 41.8251 2.20893 42.2283 2.21717H42.354C42.7038 2.25425 43.0085 2.44461 43.1651 2.72233Z" fill="#FAC412"/>
<path d="M42.2423 15.739C42.0607 15.744 41.8838 15.7868 41.7247 15.8635L37.563 17.7735C37.0538 17.987 36.4444 17.8213 36.1589 17.3935C36.0531 17.2187 36.0148 17.0184 36.0503 16.8222L36.8815 12.7624C36.9377 12.4672 36.8254 12.1672 36.5811 11.9595L33.1823 9.06851C32.7788 8.72146 32.7713 8.15185 33.1663 7.79656C33.172 7.79161 33.1766 7.78749 33.1823 7.78337C33.3433 7.64323 33.5511 7.55091 33.7748 7.52206L38.4672 6.91535C38.807 6.87743 39.1019 6.69113 39.2516 6.42074L41.2913 2.68074C41.4851 2.37903 41.8567 2.19932 42.2498 2.21828C42.2423 2.46311 42.2423 15.5725 42.2423 15.739Z" fill="#FAC412"/>
<path d="M5.085 61.15C3.745 61.15 2.725 60.79 2.025 60.07C1.335 59.35 0.965 58.355 0.915 57.085C0.905 56.815 0.9 56.375 0.9 55.765C0.9 55.145 0.905 54.695 0.915 54.415C0.965 53.155 1.34 52.165 2.04 51.445C2.74 50.715 3.755 50.35 5.085 50.35C5.975 50.35 6.73 50.51 7.35 50.83C7.97 51.14 8.44 51.55 8.76 52.06C9.08 52.57 9.255 53.115 9.285 53.695V53.725C9.285 53.805 9.25 53.875 9.18 53.935C9.12 53.985 9.05 54.01 8.97 54.01H8.145C7.945 54.01 7.82 53.895 7.77 53.665C7.6 52.915 7.295 52.39 6.855 52.09C6.415 51.78 5.825 51.625 5.085 51.625C3.365 51.625 2.475 52.58 2.415 54.49C2.405 54.76 2.4 55.175 2.4 55.735C2.4 56.295 2.405 56.72 2.415 57.01C2.475 58.92 3.365 59.875 5.085 59.875C5.825 59.875 6.415 59.725 6.855 59.425C7.305 59.115 7.61 58.585 7.77 57.835C7.8 57.705 7.845 57.615 7.905 57.565C7.965 57.515 8.045 57.49 8.145 57.49H8.97C9.06 57.49 9.135 57.52 9.195 57.58C9.265 57.63 9.295 57.7 9.285 57.79C9.255 58.38 9.08 58.93 8.76 59.44C8.44 59.95 7.97 60.365 7.35 60.685C6.73 60.995 5.975 61.15 5.085 61.15ZM11.4602 61C11.3602 61 11.2752 60.97 11.2052 60.91C11.1452 60.84 11.1152 60.755 11.1152 60.655V50.695C11.1152 50.595 11.1452 50.515 11.2052 50.455C11.2752 50.385 11.3602 50.35 11.4602 50.35H12.2102C12.3102 50.35 12.3902 50.385 12.4502 50.455C12.5202 50.515 12.5552 50.595 12.5552 50.695V54.19C12.8452 53.82 13.1852 53.54 13.5752 53.35C13.9652 53.15 14.4502 53.05 15.0302 53.05C15.9902 53.05 16.7352 53.36 17.2652 53.98C17.8052 54.59 18.0752 55.405 18.0752 56.425V60.655C18.0752 60.755 18.0402 60.84 17.9702 60.91C17.9102 60.97 17.8302 61 17.7302 61H16.9802C16.8802 61 16.7952 60.97 16.7252 60.91C16.6652 60.84 16.6352 60.755 16.6352 60.655V56.5C16.6352 55.79 16.4602 55.24 16.1102 54.85C15.7702 54.46 15.2752 54.265 14.6252 54.265C13.9952 54.265 13.4902 54.465 13.1102 54.865C12.7402 55.255 12.5552 55.8 12.5552 56.5V60.655C12.5552 60.755 12.5202 60.84 12.4502 60.91C12.3902 60.97 12.3102 61 12.2102 61H11.4602ZM23.3609 61.15C22.3309 61.15 21.5059 60.835 20.8859 60.205C20.2759 59.565 19.9409 58.695 19.8809 57.595L19.8659 57.085L19.8809 56.59C19.9509 55.51 20.2909 54.65 20.9009 54.01C21.5209 53.37 22.3359 53.05 23.3459 53.05C24.4559 53.05 25.3159 53.405 25.9259 54.115C26.5359 54.815 26.8409 55.765 26.8409 56.965V57.22C26.8409 57.32 26.8059 57.405 26.7359 57.475C26.6759 57.535 26.5959 57.565 26.4959 57.565H21.3059V57.7C21.3359 58.35 21.5309 58.905 21.8909 59.365C22.2609 59.815 22.7459 60.04 23.3459 60.04C23.8059 60.04 24.1809 59.95 24.4709 59.77C24.7709 59.58 24.9909 59.385 25.1309 59.185C25.2209 59.065 25.2859 58.995 25.3259 58.975C25.3759 58.945 25.4609 58.93 25.5809 58.93H26.3159C26.4059 58.93 26.4809 58.955 26.5409 59.005C26.6009 59.055 26.6309 59.125 26.6309 59.215C26.6309 59.435 26.4909 59.7 26.2109 60.01C25.9409 60.32 25.5559 60.59 25.0559 60.82C24.5659 61.04 24.0009 61.15 23.3609 61.15ZM25.4159 56.53V56.485C25.4159 55.795 25.2259 55.235 24.8459 54.805C24.4759 54.365 23.9759 54.145 23.3459 54.145C22.7159 54.145 22.2159 54.365 21.8459 54.805C21.4859 55.235 21.3059 55.795 21.3059 56.485V56.53H25.4159ZM31.7544 61.15C30.7244 61.15 29.8994 60.835 29.2794 60.205C28.6694 59.565 28.3344 58.695 28.2744 57.595L28.2594 57.085L28.2744 56.59C28.3444 55.51 28.6844 54.65 29.2944 54.01C29.9144 53.37 30.7294 53.05 31.7394 53.05C32.8494 53.05 33.7094 53.405 34.3194 54.115C34.9294 54.815 35.2344 55.765 35.2344 56.965V57.22C35.2344 57.32 35.1994 57.405 35.1294 57.475C35.0694 57.535 34.9894 57.565 34.8894 57.565H29.6994V57.7C29.7294 58.35 29.9244 58.905 30.2844 59.365C30.6544 59.815 31.1394 60.04 31.7394 60.04C32.1994 60.04 32.5744 59.95 32.8644 59.77C33.1644 59.58 33.3844 59.385 33.5244 59.185C33.6144 59.065 33.6794 58.995 33.7194 58.975C33.7694 58.945 33.8544 58.93 33.9744 58.93H34.7094C34.7994 58.93 34.8744 58.955 34.9344 59.005C34.9944 59.055 35.0244 59.125 35.0244 59.215C35.0244 59.435 34.8844 59.7 34.6044 60.01C34.3344 60.32 33.9494 60.59 33.4494 60.82C32.9594 61.04 32.3944 61.15 31.7544 61.15ZM33.8094 56.53V56.485C33.8094 55.795 33.6194 55.235 33.2394 54.805C32.8694 54.365 32.3694 54.145 31.7394 54.145C31.1094 54.145 30.6094 54.365 30.2394 54.805C29.8794 55.235 29.6994 55.795 29.6994 56.485V56.53H33.8094ZM39.728 61.15C39.028 61.15 38.438 61.04 37.958 60.82C37.488 60.59 37.133 60.33 36.893 60.04C36.663 59.75 36.548 59.51 36.548 59.32C36.548 59.22 36.583 59.145 36.653 59.095C36.733 59.035 36.813 59.005 36.893 59.005H37.568C37.668 59.005 37.758 59.055 37.838 59.155C38.078 59.435 38.338 59.655 38.618 59.815C38.898 59.975 39.273 60.055 39.743 60.055C40.263 60.055 40.683 59.955 41.003 59.755C41.333 59.545 41.498 59.26 41.498 58.9C41.498 58.66 41.428 58.465 41.288 58.315C41.158 58.155 40.928 58.02 40.598 57.91C40.278 57.79 39.798 57.66 39.158 57.52C38.288 57.33 37.668 57.055 37.298 56.695C36.938 56.335 36.758 55.87 36.758 55.3C36.758 54.92 36.868 54.56 37.088 54.22C37.318 53.87 37.648 53.59 38.078 53.38C38.518 53.16 39.043 53.05 39.653 53.05C40.293 53.05 40.838 53.155 41.288 53.365C41.738 53.575 42.073 53.825 42.293 54.115C42.523 54.395 42.638 54.63 42.638 54.82C42.638 54.91 42.603 54.985 42.533 55.045C42.473 55.105 42.398 55.135 42.308 55.135H41.678C41.558 55.135 41.458 55.085 41.378 54.985C41.218 54.795 41.078 54.65 40.958 54.55C40.848 54.44 40.683 54.345 40.463 54.265C40.253 54.185 39.983 54.145 39.653 54.145C39.173 54.145 38.803 54.25 38.543 54.46C38.283 54.66 38.153 54.925 38.153 55.255C38.153 55.465 38.208 55.645 38.318 55.795C38.428 55.935 38.638 56.065 38.948 56.185C39.268 56.305 39.728 56.43 40.328 56.56C41.278 56.76 41.948 57.05 42.338 57.43C42.738 57.8 42.938 58.275 42.938 58.855C42.938 59.285 42.813 59.675 42.563 60.025C42.313 60.375 41.943 60.65 41.453 60.85C40.973 61.05 40.398 61.15 39.728 61.15ZM47.7945 61.15C46.7645 61.15 45.9395 60.835 45.3195 60.205C44.7095 59.565 44.3745 58.695 44.3145 57.595L44.2995 57.085L44.3145 56.59C44.3845 55.51 44.7245 54.65 45.3345 54.01C45.9545 53.37 46.7695 53.05 47.7795 53.05C48.8895 53.05 49.7495 53.405 50.3595 54.115C50.9695 54.815 51.2745 55.765 51.2745 56.965V57.22C51.2745 57.32 51.2395 57.405 51.1695 57.475C51.1095 57.535 51.0295 57.565 50.9295 57.565H45.7395V57.7C45.7695 58.35 45.9645 58.905 46.3245 59.365C46.6945 59.815 47.1795 60.04 47.7795 60.04C48.2395 60.04 48.6145 59.95 48.9045 59.77C49.2045 59.58 49.4245 59.385 49.5645 59.185C49.6545 59.065 49.7195 58.995 49.7595 58.975C49.8095 58.945 49.8945 58.93 50.0145 58.93H50.7495C50.8395 58.93 50.9145 58.955 50.9745 59.005C51.0345 59.055 51.0645 59.125 51.0645 59.215C51.0645 59.435 50.9245 59.7 50.6445 60.01C50.3745 60.32 49.9895 60.59 49.4895 60.82C48.9995 61.04 48.4345 61.15 47.7945 61.15ZM49.8495 56.53V56.485C49.8495 55.795 49.6595 55.235 49.2795 54.805C48.9095 54.365 48.4095 54.145 47.7795 54.145C47.1495 54.145 46.6495 54.365 46.2795 54.805C45.9195 55.235 45.7395 55.795 45.7395 56.485V56.53H49.8495ZM56.923 61.15C55.843 61.15 55.023 60.775 54.463 60.025V60.655C54.463 60.755 54.428 60.84 54.358 60.91C54.298 60.97 54.218 61 54.118 61H53.428C53.328 61 53.243 60.97 53.173 60.91C53.113 60.84 53.083 60.755 53.083 60.655V50.695C53.083 50.595 53.113 50.515 53.173 50.455C53.243 50.385 53.328 50.35 53.428 50.35H54.163C54.263 50.35 54.343 50.385 54.403 50.455C54.463 50.515 54.493 50.595 54.493 50.695V54.145C55.083 53.415 55.893 53.05 56.923 53.05C57.963 53.05 58.748 53.395 59.278 54.085C59.808 54.765 60.093 55.62 60.133 56.65C60.143 56.76 60.148 56.91 60.148 57.1C60.148 57.29 60.143 57.44 60.133 57.55C60.093 58.59 59.808 59.45 59.278 60.13C58.748 60.81 57.963 61.15 56.923 61.15ZM56.608 59.935C57.318 59.935 57.833 59.715 58.153 59.275C58.483 58.835 58.663 58.255 58.693 57.535C58.703 57.435 58.708 57.29 58.708 57.1C58.708 55.21 58.008 54.265 56.608 54.265C55.938 54.265 55.423 54.485 55.063 54.925C54.703 55.365 54.513 55.88 54.493 56.47L54.478 57.055L54.493 57.625C54.523 58.255 54.708 58.8 55.048 59.26C55.398 59.71 55.918 59.935 56.608 59.935ZM64.8989 61.15C63.9489 61.15 63.2139 60.845 62.6939 60.235C62.1739 59.615 61.9139 58.795 61.9139 57.775V53.545C61.9139 53.445 61.9439 53.365 62.0039 53.305C62.0739 53.235 62.1589 53.2 62.2589 53.2H63.0089C63.1089 53.2 63.1889 53.235 63.2489 53.305C63.3189 53.365 63.3539 53.445 63.3539 53.545V57.7C63.3539 59.19 64.0039 59.935 65.3039 59.935C65.9339 59.935 66.4339 59.74 66.8039 59.35C67.1739 58.95 67.3589 58.4 67.3589 57.7V53.545C67.3589 53.445 67.3889 53.365 67.4489 53.305C67.5189 53.235 67.6039 53.2 67.7039 53.2H68.4539C68.5539 53.2 68.6339 53.235 68.6939 53.305C68.7539 53.365 68.7839 53.445 68.7839 53.545V60.655C68.7839 60.755 68.7539 60.84 68.6939 60.91C68.6339 60.97 68.5539 61 68.4539 61H67.7489C67.6489 61 67.5639 60.97 67.4939 60.91C67.4339 60.84 67.4039 60.755 67.4039 60.655V59.995C67.1239 60.375 66.7839 60.665 66.3839 60.865C65.9839 61.055 65.4889 61.15 64.8989 61.15ZM71.3573 61C71.2573 61 71.1723 60.97 71.1023 60.91C71.0423 60.84 71.0123 60.755 71.0123 60.655V53.56C71.0123 53.46 71.0423 53.375 71.1023 53.305C71.1723 53.235 71.2573 53.2 71.3573 53.2H72.0473C72.1473 53.2 72.2323 53.235 72.3023 53.305C72.3723 53.375 72.4073 53.46 72.4073 53.56V54.22C72.8173 53.54 73.5173 53.2 74.5073 53.2H75.0923C75.1923 53.2 75.2723 53.235 75.3323 53.305C75.4023 53.365 75.4373 53.445 75.4373 53.545V54.16C75.4373 54.26 75.4023 54.34 75.3323 54.4C75.2723 54.46 75.1923 54.49 75.0923 54.49H74.1923C73.6523 54.49 73.2273 54.65 72.9173 54.97C72.6073 55.28 72.4523 55.705 72.4523 56.245V60.655C72.4523 60.755 72.4173 60.84 72.3473 60.91C72.2773 60.97 72.1923 61 72.0923 61H71.3573ZM79.7445 64.3C78.9245 64.3 78.2645 64.16 77.7645 63.88C77.2645 63.61 76.9095 63.3 76.6995 62.95C76.4895 62.6 76.3745 62.285 76.3545 62.005C76.3445 61.905 76.3745 61.82 76.4445 61.75C76.5245 61.68 76.6095 61.645 76.6995 61.645H77.4195C77.5095 61.645 77.5845 61.665 77.6445 61.705C77.7045 61.755 77.7545 61.84 77.7945 61.96C77.9145 62.28 78.1095 62.555 78.3795 62.785C78.6595 63.025 79.0895 63.145 79.6695 63.145C80.4095 63.145 80.9545 62.985 81.3045 62.665C81.6545 62.355 81.8295 61.8 81.8295 61V59.98C81.5695 60.31 81.2395 60.575 80.8395 60.775C80.4395 60.965 79.9645 61.06 79.4145 61.06C78.3545 61.06 77.5595 60.725 77.0295 60.055C76.5095 59.375 76.2345 58.515 76.2045 57.475L76.1895 57.055L76.2045 56.65C76.2345 55.62 76.5145 54.765 77.0445 54.085C77.5745 53.395 78.3645 53.05 79.4145 53.05C80.4645 53.05 81.2845 53.435 81.8745 54.205V53.56C81.8745 53.46 81.9045 53.375 81.9645 53.305C82.0345 53.235 82.1195 53.2 82.2195 53.2H82.9095C83.0095 53.2 83.0945 53.235 83.1645 53.305C83.2345 53.375 83.2695 53.46 83.2695 53.56V60.835C83.2695 63.145 82.0945 64.3 79.7445 64.3ZM79.7145 59.86C80.3945 59.86 80.9095 59.635 81.2595 59.185C81.6095 58.735 81.7995 58.2 81.8295 57.58C81.8395 57.49 81.8445 57.315 81.8445 57.055C81.8445 56.805 81.8395 56.635 81.8295 56.545C81.7995 55.925 81.6095 55.39 81.2595 54.94C80.9195 54.49 80.4045 54.265 79.7145 54.265C79.0045 54.265 78.4895 54.485 78.1695 54.925C77.8495 55.365 77.6745 55.945 77.6445 56.665L77.6295 57.055L77.6445 57.46C77.6745 58.17 77.8495 58.75 78.1695 59.2C78.4895 59.64 79.0045 59.86 79.7145 59.86ZM88.6196 61.15C87.5896 61.15 86.7646 60.835 86.1446 60.205C85.5346 59.565 85.1996 58.695 85.1396 57.595L85.1246 57.085L85.1396 56.59C85.2096 55.51 85.5496 54.65 86.1596 54.01C86.7796 53.37 87.5946 53.05 88.6046 53.05C89.7146 53.05 90.5746 53.405 91.1846 54.115C91.7946 54.815 92.0996 55.765 92.0996 56.965V57.22C92.0996 57.32 92.0646 57.405 91.9946 57.475C91.9346 57.535 91.8546 57.565 91.7546 57.565H86.5646V57.7C86.5946 58.35 86.7896 58.905 87.1496 59.365C87.5196 59.815 88.0046 60.04 88.6046 60.04C89.0646 60.04 89.4396 59.95 89.7296 59.77C90.0296 59.58 90.2496 59.385 90.3896 59.185C90.4796 59.065 90.5446 58.995 90.5846 58.975C90.6346 58.945 90.7196 58.93 90.8396 58.93H91.5746C91.6646 58.93 91.7396 58.955 91.7996 59.005C91.8596 59.055 91.8896 59.125 91.8896 59.215C91.8896 59.435 91.7496 59.7 91.4696 60.01C91.1996 60.32 90.8146 60.59 90.3146 60.82C89.8246 61.04 89.2596 61.15 88.6196 61.15ZM90.6746 56.53V56.485C90.6746 55.795 90.4846 55.235 90.1046 54.805C89.7346 54.365 89.2346 54.145 88.6046 54.145C87.9746 54.145 87.4746 54.365 87.1046 54.805C86.7446 55.235 86.5646 55.795 86.5646 56.485V56.53H90.6746ZM94.2382 61C94.1382 61 94.0532 60.97 93.9832 60.91C93.9232 60.84 93.8932 60.755 93.8932 60.655V53.56C93.8932 53.46 93.9232 53.375 93.9832 53.305C94.0532 53.235 94.1382 53.2 94.2382 53.2H94.9282C95.0282 53.2 95.1132 53.235 95.1832 53.305C95.2532 53.375 95.2882 53.46 95.2882 53.56V54.22C95.6982 53.54 96.3982 53.2 97.3882 53.2H97.9732C98.0732 53.2 98.1532 53.235 98.2132 53.305C98.2832 53.365 98.3182 53.445 98.3182 53.545V54.16C98.3182 54.26 98.2832 54.34 98.2132 54.4C98.1532 54.46 98.0732 54.49 97.9732 54.49H97.0732C96.5332 54.49 96.1082 54.65 95.7982 54.97C95.4882 55.28 95.3332 55.705 95.3332 56.245V60.655C95.3332 60.755 95.2982 60.84 95.2282 60.91C95.1582 60.97 95.0732 61 94.9732 61H94.2382ZM104.647 61C104.387 61 104.232 60.865 104.182 60.595L102.247 50.965C102.237 50.915 102.232 50.86 102.232 50.8C102.232 50.72 102.262 50.65 102.322 50.59C102.382 50.53 102.452 50.5 102.532 50.5H103.312C103.522 50.5 103.642 50.585 103.672 50.755L105.202 58.495L106.822 53.185C106.912 52.945 107.072 52.825 107.302 52.825H107.857C107.987 52.825 108.087 52.86 108.157 52.93C108.237 53 108.292 53.085 108.322 53.185L109.957 58.495L111.472 50.755C111.502 50.585 111.627 50.5 111.847 50.5H112.627C112.707 50.5 112.777 50.53 112.837 50.59C112.897 50.65 112.927 50.72 112.927 50.8L112.912 50.965L110.977 60.595C110.917 60.865 110.762 61 110.512 61H109.927C109.667 61 109.502 60.875 109.432 60.625L107.572 54.91L105.727 60.625C105.647 60.875 105.482 61 105.232 61H104.647ZM114.919 51.745C114.819 51.745 114.734 51.715 114.664 51.655C114.604 51.585 114.574 51.5 114.574 51.4V50.59C114.574 50.49 114.604 50.405 114.664 50.335C114.734 50.265 114.819 50.23 114.919 50.23H115.864C115.964 50.23 116.049 50.265 116.119 50.335C116.189 50.405 116.224 50.49 116.224 50.59V51.4C116.224 51.5 116.189 51.585 116.119 51.655C116.049 51.715 115.964 51.745 115.864 51.745H114.919ZM115.039 61C114.939 61 114.854 60.97 114.784 60.91C114.724 60.84 114.694 60.755 114.694 60.655V53.545C114.694 53.445 114.724 53.365 114.784 53.305C114.854 53.235 114.939 53.2 115.039 53.2H115.759C115.859 53.2 115.939 53.235 115.999 53.305C116.069 53.365 116.104 53.445 116.104 53.545V60.655C116.104 60.755 116.069 60.84 115.999 60.91C115.939 60.97 115.859 61 115.759 61H115.039ZM121.372 61C119.792 61 119.002 60.12 119.002 58.36V54.4H117.832C117.732 54.4 117.647 54.37 117.577 54.31C117.517 54.24 117.487 54.155 117.487 54.055V53.545C117.487 53.445 117.517 53.365 117.577 53.305C117.647 53.235 117.732 53.2 117.832 53.2H119.002V50.695C119.002 50.595 119.032 50.515 119.092 50.455C119.162 50.385 119.247 50.35 119.347 50.35H120.052C120.152 50.35 120.232 50.385 120.292 50.455C120.362 50.515 120.397 50.595 120.397 50.695V53.2H122.257C122.357 53.2 122.437 53.235 122.497 53.305C122.567 53.365 122.602 53.445 122.602 53.545V54.055C122.602 54.155 122.567 54.24 122.497 54.31C122.437 54.37 122.357 54.4 122.257 54.4H120.397V58.255C120.397 58.755 120.482 59.135 120.652 59.395C120.822 59.645 121.102 59.77 121.492 59.77H122.407C122.507 59.77 122.587 59.805 122.647 59.875C122.717 59.935 122.752 60.015 122.752 60.115V60.655C122.752 60.755 122.717 60.84 122.647 60.91C122.587 60.97 122.507 61 122.407 61H121.372ZM124.546 61C124.446 61 124.361 60.97 124.291 60.91C124.231 60.84 124.201 60.755 124.201 60.655V50.695C124.201 50.595 124.231 50.515 124.291 50.455C124.361 50.385 124.446 50.35 124.546 50.35H125.296C125.396 50.35 125.476 50.385 125.536 50.455C125.606 50.515 125.641 50.595 125.641 50.695V54.19C125.931 53.82 126.271 53.54 126.661 53.35C127.051 53.15 127.536 53.05 128.116 53.05C129.076 53.05 129.821 53.36 130.351 53.98C130.891 54.59 131.161 55.405 131.161 56.425V60.655C131.161 60.755 131.126 60.84 131.056 60.91C130.996 60.97 130.916 61 130.816 61H130.066C129.966 61 129.881 60.97 129.811 60.91C129.751 60.84 129.721 60.755 129.721 60.655V56.5C129.721 55.79 129.546 55.24 129.196 54.85C128.856 54.46 128.361 54.265 127.711 54.265C127.081 54.265 126.576 54.465 126.196 54.865C125.826 55.255 125.641 55.8 125.641 56.5V60.655C125.641 60.755 125.606 60.84 125.536 60.91C125.476 60.97 125.396 61 125.296 61H124.546ZM140.574 61.15C139.744 61.15 139.024 61.02 138.414 60.76C137.814 60.5 137.354 60.16 137.034 59.74C136.714 59.31 136.544 58.85 136.524 58.36C136.524 58.28 136.554 58.21 136.614 58.15C136.684 58.08 136.764 58.045 136.854 58.045H137.619C137.809 58.045 137.939 58.145 138.009 58.345C138.099 58.765 138.354 59.125 138.774 59.425C139.204 59.725 139.804 59.875 140.574 59.875C141.404 59.875 142.029 59.73 142.449 59.44C142.869 59.14 143.079 58.725 143.079 58.195C143.079 57.855 142.974 57.58 142.764 57.37C142.564 57.16 142.264 56.975 141.864 56.815C141.464 56.655 140.864 56.455 140.064 56.215C139.284 55.995 138.664 55.76 138.204 55.51C137.744 55.26 137.399 54.95 137.169 54.58C136.939 54.21 136.824 53.745 136.824 53.185C136.824 52.645 136.969 52.16 137.259 51.73C137.559 51.3 137.984 50.965 138.534 50.725C139.084 50.475 139.739 50.35 140.499 50.35C141.279 50.35 141.949 50.49 142.509 50.77C143.069 51.04 143.494 51.385 143.784 51.805C144.074 52.225 144.229 52.645 144.249 53.065C144.249 53.145 144.219 53.215 144.159 53.275C144.109 53.335 144.034 53.365 143.934 53.365H143.139C142.929 53.365 142.799 53.27 142.749 53.08C142.689 52.66 142.454 52.315 142.044 52.045C141.634 51.765 141.119 51.625 140.499 51.625C139.819 51.625 139.284 51.755 138.894 52.015C138.504 52.275 138.309 52.66 138.309 53.17C138.309 53.51 138.399 53.79 138.579 54.01C138.769 54.23 139.054 54.425 139.434 54.595C139.814 54.755 140.369 54.94 141.099 55.15C141.949 55.38 142.619 55.62 143.109 55.87C143.599 56.11 143.964 56.415 144.204 56.785C144.444 57.145 144.564 57.605 144.564 58.165C144.564 59.095 144.204 59.825 143.484 60.355C142.764 60.885 141.794 61.15 140.574 61.15ZM148.51 61.15C148.02 61.15 147.565 61.05 147.145 60.85C146.725 60.65 146.39 60.38 146.14 60.04C145.9 59.69 145.78 59.305 145.78 58.885C145.78 58.225 146.05 57.685 146.59 57.265C147.14 56.835 147.88 56.555 148.81 56.425L151.045 56.11V55.675C151.045 54.655 150.46 54.145 149.29 54.145C148.85 54.145 148.49 54.24 148.21 54.43C147.93 54.61 147.72 54.825 147.58 55.075C147.55 55.165 147.51 55.23 147.46 55.27C147.42 55.31 147.36 55.33 147.28 55.33H146.635C146.545 55.33 146.465 55.3 146.395 55.24C146.335 55.17 146.305 55.09 146.305 55C146.315 54.76 146.425 54.49 146.635 54.19C146.855 53.88 147.19 53.615 147.64 53.395C148.09 53.165 148.645 53.05 149.305 53.05C150.425 53.05 151.23 53.315 151.72 53.845C152.21 54.365 152.455 55.015 152.455 55.795V60.655C152.455 60.755 152.42 60.84 152.35 60.91C152.29 60.97 152.21 61 152.11 61H151.42C151.32 61 151.235 60.97 151.165 60.91C151.105 60.84 151.075 60.755 151.075 60.655V60.01C150.855 60.33 150.535 60.6 150.115 60.82C149.695 61.04 149.16 61.15 148.51 61.15ZM148.825 60.025C149.475 60.025 150.005 59.815 150.415 59.395C150.835 58.965 151.045 58.35 151.045 57.55V57.13L149.305 57.385C148.595 57.485 148.06 57.655 147.7 57.895C147.34 58.125 147.16 58.42 147.16 58.78C147.16 59.18 147.325 59.49 147.655 59.71C147.985 59.92 148.375 60.025 148.825 60.025ZM154.971 61C154.871 61 154.786 60.97 154.716 60.91C154.656 60.84 154.626 60.755 154.626 60.655V50.695C154.626 50.595 154.656 50.515 154.716 50.455C154.786 50.385 154.871 50.35 154.971 50.35H155.676C155.776 50.35 155.856 50.385 155.916 50.455C155.986 50.515 156.021 50.595 156.021 50.695V60.655C156.021 60.755 155.986 60.84 155.916 60.91C155.856 60.97 155.776 61 155.676 61H154.971ZM160.433 61.15C159.943 61.15 159.488 61.05 159.068 60.85C158.648 60.65 158.313 60.38 158.063 60.04C157.823 59.69 157.703 59.305 157.703 58.885C157.703 58.225 157.973 57.685 158.513 57.265C159.063 56.835 159.803 56.555 160.733 56.425L162.968 56.11V55.675C162.968 54.655 162.383 54.145 161.213 54.145C160.773 54.145 160.413 54.24 160.133 54.43C159.853 54.61 159.643 54.825 159.503 55.075C159.473 55.165 159.433 55.23 159.383 55.27C159.343 55.31 159.283 55.33 159.203 55.33H158.558C158.468 55.33 158.388 55.3 158.318 55.24C158.258 55.17 158.228 55.09 158.228 55C158.238 54.76 158.348 54.49 158.558 54.19C158.778 53.88 159.113 53.615 159.563 53.395C160.013 53.165 160.568 53.05 161.228 53.05C162.348 53.05 163.153 53.315 163.643 53.845C164.133 54.365 164.378 55.015 164.378 55.795V60.655C164.378 60.755 164.343 60.84 164.273 60.91C164.213 60.97 164.133 61 164.033 61H163.343C163.243 61 163.158 60.97 163.088 60.91C163.028 60.84 162.998 60.755 162.998 60.655V60.01C162.778 60.33 162.458 60.6 162.038 60.82C161.618 61.04 161.083 61.15 160.433 61.15ZM160.748 60.025C161.398 60.025 161.928 59.815 162.338 59.395C162.758 58.965 162.968 58.35 162.968 57.55V57.13L161.228 57.385C160.518 57.485 159.983 57.655 159.623 57.895C159.263 58.125 159.083 58.42 159.083 58.78C159.083 59.18 159.248 59.49 159.578 59.71C159.908 59.92 160.298 60.025 160.748 60.025ZM169.385 61.15C168.345 61.15 167.56 60.81 167.03 60.13C166.5 59.45 166.22 58.59 166.19 57.55L166.175 57.1L166.19 56.65C166.22 55.62 166.5 54.765 167.03 54.085C167.56 53.395 168.345 53.05 169.385 53.05C170.415 53.05 171.225 53.415 171.815 54.145V50.695C171.815 50.595 171.845 50.515 171.905 50.455C171.975 50.385 172.06 50.35 172.16 50.35H172.88C172.98 50.35 173.06 50.385 173.12 50.455C173.19 50.515 173.225 50.595 173.225 50.695V60.655C173.225 60.755 173.19 60.84 173.12 60.91C173.06 60.97 172.98 61 172.88 61H172.205C172.105 61 172.02 60.97 171.95 60.91C171.89 60.84 171.86 60.755 171.86 60.655V60.025C171.28 60.775 170.455 61.15 169.385 61.15ZM169.7 59.935C170.39 59.935 170.905 59.71 171.245 59.26C171.595 58.8 171.785 58.255 171.815 57.625C171.825 57.515 171.83 57.325 171.83 57.055C171.83 56.775 171.825 56.58 171.815 56.47C171.795 55.88 171.605 55.365 171.245 54.925C170.885 54.485 170.37 54.265 169.7 54.265C168.99 54.265 168.47 54.485 168.14 54.925C167.82 55.365 167.645 55.945 167.615 56.665L167.6 57.1C167.6 58.99 168.3 59.935 169.7 59.935Z" fill="#363853"/>
</svg>
